HIERARCHY
ROOT Hips
{
	OFFSET 0.053599 88.859886 3.107447
	CHANNELS 6 Xposition Yposition Zposition Zrotation Yrotation Xrotation 
	JOINT Spine
	{
		OFFSET -0.000000 8.814246 -2.080107
		CHANNELS 3 Zrotation Yrotation Xrotation
		JOINT Spine1
		{
			OFFSET 0.000000 8.844141 0.000000
			CHANNELS 3 Zrotation Yrotation Xrotation
			JOINT Spine2
			{
				OFFSET -0.000000 11.682268 0.000000
				CHANNELS 3 Zrotation Yrotation Xrotation
				JOINT Spine3
				{
					OFFSET 0.000000 11.746700 0.000000
					CHANNELS 3 Zrotation Yrotation Xrotation
					JOINT Neck
					{
						OFFSET -0.000000 17.658264 -0.000000
						CHANNELS 3 Zrotation Yrotation Xrotation
						JOINT Neck1
						{
							OFFSET -0.000000 5.101515 -0.000000
							CHANNELS 3 Zrotation Yrotation Xrotation
							JOINT Head
							{
								OFFSET 0.000000 5.101515 0.000000
								CHANNELS 3 Zrotation Yrotation Xrotation
								JOINT HeadEnd
								{
									OFFSET 0.000000 11.655085 0.000000
									CHANNELS 3 Zrotation Yrotation Xrotation
									End Site
									{
										OFFSET 0.000000 0.000000 0.000000
									}
								}
							}
						}
					}
					JOINT RightShoulder
					{
						OFFSET -2.625389 11.175210 0.000000
						CHANNELS 3 Zrotation Yrotation Xrotation
						JOINT RightArm
						{
							OFFSET -0.000000 10.434715 -0.000000
							CHANNELS 3 Zrotation Yrotation Xrotation
							JOINT RightForeArm
							{
								OFFSET -0.000000 29.628420 0.000000
								CHANNELS 3 Zrotation Yrotation Xrotation
								JOINT RightHand
								{
									OFFSET -0.000000 22.857611 0.000000
									CHANNELS 3 Zrotation Yrotation Xrotation
									JOINT RightHandThumb1
									{
										OFFSET -2.867323 3.959563 2.944291
										CHANNELS 3 Zrotation Yrotation Xrotation
										JOINT RightHandThumb2
										{
											OFFSET 0.000000 3.350399 0.000000
											CHANNELS 3 Zrotation Yrotation Xrotation
											JOINT RightHandThumb3
											{
												OFFSET 0.000000 3.756509 -0.000000
												CHANNELS 3 Zrotation Yrotation Xrotation
												JOINT RightHandThumb4
												{
													OFFSET 0.000000 3.147345 0.000000
													CHANNELS 3 Zrotation Yrotation Xrotation
													End Site
													{
														OFFSET 0.000000 0.000000 0.000000
													}
												}
											}
										}
									}
									JOINT RightHandIndex1
									{
										OFFSET -0.086752 10.030893 2.345280
										CHANNELS 3 Zrotation Yrotation Xrotation
										JOINT RightHandIndex2
										{
											OFFSET -0.000000 4.061090 0.000000
											CHANNELS 3 Zrotation Yrotation Xrotation
											JOINT RightHandIndex3
											{
												OFFSET -0.000000 3.248873 0.000000
												CHANNELS 3 Zrotation Yrotation Xrotation
												JOINT RightHandIndex4
												{
													OFFSET 0.000000 2.639709 -0.000000
													CHANNELS 3 Zrotation Yrotation Xrotation
													End Site
													{
														OFFSET 0.000000 0.000000 0.000000
													}
												}
											}
										}
									}
									JOINT RightHandMiddle1
									{
										OFFSET 0.104102 9.502952 0.006768
										CHANNELS 3 Zrotation Yrotation Xrotation
										JOINT RightHandMiddle2
										{
											OFFSET 0.000000 4.568727 0.000000
											CHANNELS 3 Zrotation Yrotation Xrotation
											JOINT RightHandMiddle3
											{
												OFFSET 0.000000 3.654981 -0.000000
												CHANNELS 3 Zrotation Yrotation Xrotation
												JOINT RightHandMiddle4
												{
													OFFSET -0.000000 2.741236 -0.000000
													CHANNELS 3 Zrotation Yrotation Xrotation
													End Site
													{
														OFFSET 0.000000 0.000000 0.000000
													}
												}
											}
										}
									}
									JOINT RightHandRing1
									{
										OFFSET 0.086752 8.921708 -2.267442
										CHANNELS 3 Zrotation Yrotation Xrotation
										JOINT RightHandRing2
										{
											OFFSET -0.000000 4.061090 0.000000
											CHANNELS 3 Zrotation Yrotation Xrotation
											JOINT RightHandRing3
											{
												OFFSET 0.000000 3.654981 -0.000000
												CHANNELS 3 Zrotation Yrotation Xrotation
												JOINT RightHandRing4
												{
													OFFSET 0.000000 2.741236 -0.000000
													CHANNELS 3 Zrotation Yrotation Xrotation
													End Site
													{
														OFFSET 0.000000 0.000000 0.000000
													}
												}
											}
										}
									}
									JOINT RightHandPinky1
									{
										OFFSET -0.173504 7.976997 -4.467199
										CHANNELS 3 Zrotation Yrotation Xrotation
										JOINT RightHandPinky2
										{
											OFFSET 0.000000 3.350399 -0.000000
											CHANNELS 3 Zrotation Yrotation Xrotation
											JOINT RightHandPinky3
											{
												OFFSET -0.000000 2.842763 0.000000
												CHANNELS 3 Zrotation Yrotation Xrotation
												JOINT RightHandPinky4
												{
													OFFSET -0.000000 2.639709 0.000000
													CHANNELS 3 Zrotation Yrotation Xrotation
													End Site
													{
														OFFSET 0.000000 0.000000 0.000000
													}
												}
											}
										}
									}
									JOINT RightForeArmEnd
									{
										OFFSET 0.000000 0.000000 0.000000
										CHANNELS 3 Zrotation Yrotation Xrotation
										End Site
										{
											OFFSET 0.000000 0.000000 0.000000
										}
									}
								}
								JOINT RightArmEnd
								{
									OFFSET 0.000000 0.000000 0.000000
									CHANNELS 3 Zrotation Yrotation Xrotation
									End Site
									{
										OFFSET 0.000000 0.000000 0.000000
									}
								}
							}
						}
					}
					JOINT LeftShoulder
					{
						OFFSET 2.625389 11.175210 0.000000
						CHANNELS 3 Zrotation Yrotation Xrotation
						JOINT LeftArm
						{
							OFFSET 0.000000 10.813635 -0.000000
							CHANNELS 3 Zrotation Yrotation Xrotation
							JOINT LeftForeArm
							{
								OFFSET 0.000000 28.724781 0.000000
								CHANNELS 3 Zrotation Yrotation Xrotation
								JOINT LeftHand
								{
									OFFSET 0.644384 25.716167 -0.328871
									CHANNELS 3 Zrotation Yrotation Xrotation
									JOINT LeftHandThumb1
									{
										OFFSET 2.867323 3.959563 2.944291
										CHANNELS 3 Zrotation Yrotation Xrotation
										JOINT LeftHandThumb2
										{
											OFFSET 0.000000 3.350399 0.000000
											CHANNELS 3 Zrotation Yrotation Xrotation
											JOINT LeftHandThumb3
											{
												OFFSET -0.000000 3.756509 0.000000
												CHANNELS 3 Zrotation Yrotation Xrotation
												JOINT LeftHandThumb4
												{
													OFFSET -0.000000 3.100000 0.000000
													CHANNELS 3 Zrotation Yrotation Xrotation
													End Site
													{
														OFFSET 0.000000 0.000000 0.000000
													}
												}
											}
										}
									}
									JOINT LeftHandIndex1
									{
										OFFSET 0.086752 10.030893 2.345280
										CHANNELS 3 Zrotation Yrotation Xrotation
										JOINT LeftHandIndex2
										{
											OFFSET -0.000000 4.061090 -0.000000
											CHANNELS 3 Zrotation Yrotation Xrotation
											JOINT LeftHandIndex3
											{
												OFFSET 0.000000 3.248873 -0.000000
												CHANNELS 3 Zrotation Yrotation Xrotation
												JOINT LeftHandIndex4
												{
													OFFSET 0.000000 2.639709 -0.000000
													CHANNELS 3 Zrotation Yrotation Xrotation
													End Site
													{
														OFFSET 0.000000 0.000000 0.000000
													}
												}
											}
										}
									}
									JOINT LeftHandMiddle1
									{
										OFFSET -0.104102 9.502952 0.006768
										CHANNELS 3 Zrotation Yrotation Xrotation
										JOINT LeftHandMiddle2
										{
											OFFSET -0.000000 4.568727 -0.000000
											CHANNELS 3 Zrotation Yrotation Xrotation
											JOINT LeftHandMiddle3
											{
												OFFSET 0.000000 3.654981 0.000000
												CHANNELS 3 Zrotation Yrotation Xrotation
												JOINT LeftHandMiddle4
												{
													OFFSET 0.000000 2.741236 -0.000000
													CHANNELS 3 Zrotation Yrotation Xrotation
													End Site
													{
														OFFSET 0.000000 0.000000 0.000000
													}
												}
											}
										}
									}
									JOINT LeftHandRing1
									{
										OFFSET -0.086752 8.921708 -2.267442
										CHANNELS 3 Zrotation Yrotation Xrotation
										JOINT LeftHandRing2
										{
											OFFSET 0.000000 4.061090 0.000000
											CHANNELS 3 Zrotation Yrotation Xrotation
											JOINT LeftHandRing3
											{
												OFFSET 0.000000 3.654981 0.000000
												CHANNELS 3 Zrotation Yrotation Xrotation
												JOINT LeftHandRing4
												{
													OFFSET 0.000000 2.741236 0.000000
													CHANNELS 3 Zrotation Yrotation Xrotation
													End Site
													{
														OFFSET 0.000000 0.000000 0.000000
													}
												}
											}
										}
									}
									JOINT LeftHandPinky1
									{
										OFFSET 0.173504 7.976997 -4.467199
										CHANNELS 3 Zrotation Yrotation Xrotation
										JOINT LeftHandPinky2
										{
											OFFSET -0.000000 3.350399 -0.000000
											CHANNELS 3 Zrotation Yrotation Xrotation
											JOINT LeftHandPinky3
											{
												OFFSET 0.000000 2.842763 0.000000
												CHANNELS 3 Zrotation Yrotation Xrotation
												JOINT LeftHandPinky4
												{
													OFFSET -0.000000 2.639709 -0.000000
													CHANNELS 3 Zrotation Yrotation Xrotation
													End Site
													{
														OFFSET 0.000000 0.000000 0.000000
													}
												}
											}
										}
									}
									JOINT LeftForeArmEnd
									{
										OFFSET 0.000000 0.000000 0.000000
										CHANNELS 3 Zrotation Yrotation Xrotation
										End Site
										{
											OFFSET 0.000000 0.000000 0.000000
										}
									}
								}
								JOINT LeftArmEnd
								{
									OFFSET 0.000000 0.000000 0.000000
									CHANNELS 3 Zrotation Yrotation Xrotation
									End Site
									{
										OFFSET 0.000000 0.000000 0.000000
									}
								}
							}
						}
					}
				}
			}
		}
	}
	JOINT RightUpLeg
	{
		OFFSET -11.289943 0.000000 0.000000
		CHANNELS 3 Zrotation Yrotation Xrotation
		JOINT RightLeg
		{
			OFFSET 0.000000 -38.200325 0.000000
			CHANNELS 3 Zrotation Yrotation Xrotation
			JOINT RightFoot
			{
				OFFSET -0.000000 -39.900856 -0.000000
				CHANNELS 3 Zrotation Yrotation Xrotation
				JOINT RightToeBase
				{
					OFFSET 0.000000 0.000000 15.261641
					CHANNELS 3 Zrotation Yrotation Xrotation
					JOINT RightToeBaseEnd
					{
						OFFSET 0.000000 0.000000 7.370709
						CHANNELS 3 Zrotation Yrotation Xrotation
						End Site
						{
							OFFSET 0.000000 0.000000 0.000000
						}
					}
				}
				JOINT RightLegEnd
				{
					OFFSET 0.000000 0.000000 0.000000
					CHANNELS 3 Zrotation Yrotation Xrotation
					End Site
					{
						OFFSET 0.000000 0.000000 0.000000
					}
				}
			}
			JOINT RightUpLegEnd
			{
				OFFSET 0.000000 0.000000 0.000000
				CHANNELS 3 Zrotation Yrotation Xrotation
				End Site
				{
					OFFSET 0.000000 0.000000 0.000000
				}
			}
		}
	}
	JOINT LeftUpLeg
	{
		OFFSET 11.315661 -0.000000 0.000000
		CHANNELS 3 Zrotation Yrotation Xrotation
		JOINT LeftLeg
		{
			OFFSET -0.000000 -38.200325 -0.000000
			CHANNELS 3 Zrotation Yrotation Xrotation
			JOINT LeftFoot
			{
				OFFSET 0.000000 -39.900856 -0.000000
				CHANNELS 3 Zrotation Yrotation Xrotation
				JOINT LeftToeBase
				{
					OFFSET -0.000000 -0.000000 15.261641
					CHANNELS 3 Zrotation Yrotation Xrotation
					JOINT LeftToeBaseEnd
					{
						OFFSET 0.000000 -0.000000 7.539996
						CHANNELS 3 Zrotation Yrotation Xrotation
						End Site
						{
							OFFSET 0.000000 0.000000 0.000000
						}
					}
				}
				JOINT LeftLegEnd
				{
					OFFSET 0.000000 0.000000 0.000000
					CHANNELS 3 Zrotation Yrotation Xrotation
					End Site
					{
						OFFSET 0.000000 0.000000 0.000000
					}
				}
			}
			JOINT LeftUpLegEnd
			{
				OFFSET 0.000000 0.000000 0.000000
				CHANNELS 3 Zrotation Yrotation Xrotation
				End Site
				{
					OFFSET 0.000000 0.000000 0.000000
				}
			}
		}
	}
}
MOTION
Frames: 4
Frame Time: 0.016667
-0.135071 88.639160 3.756746 -0.602342 -2.237473 -10.934507 1.079179 0.008447 7.267704 -0.473311 0.115994 2.467381 -0.055994 -0.523443 5.927346 -1.038553 0.084521 4.923605 0.709790 0.597230 5.948801 0.076880 0.859738 -2.713048 -0.390861 -0.596111 -19.945492 0.000000 0.000000 0.000000 93.078476 -0.446224 10.476544 63.276070 -30.307539 9.211923 -0.115388 13.877792 23.207470 7.403397 12.283724 -4.592011 19.830353 30.106411 62.077782 -8.452481 -12.140520 -20.509144 -6.303388 -7.992086 -14.162119 0.000000 0.000000 0.000000 12.659274 -11.078666 1.611785 9.944156 0.322060 1.521024 9.715419 -0.109659 1.448490 0.000000 0.000000 0.000000 11.983383 -5.458682 0.339766 8.564191 0.428756 0.562574 9.044294 -0.062412 0.485835 0.000000 0.000000 0.000000 13.025026 2.244397 0.132698 9.470937 -0.880204 -0.832296 9.301808 0.064523 -0.593734 0.000000 0.000000 0.000000 11.990074 10.731628 -1.169777 9.280381 -1.630079 -2.448335 9.161367 0.264743 -2.012712 0.000000 0.000000 0.000000 0.000000 0.000000 0.000000 0.000000 0.000000 0.000000 -90.853531 0.490762 6.038267 -69.814034 18.548767 -5.112268 -0.488312 -9.266244 46.179672 -4.014164 -13.010691 -16.748016 -19.835920 -30.096550 61.947758 8.559218 12.141098 -20.619844 6.298711 8.141619 -14.397681 0.000000 0.000000 0.000000 -16.332106 -5.837210 0.978901 -10.742020 0.342234 -1.198931 -10.546751 -0.112422 -1.126745 0.000000 0.000000 0.000000 -15.797721 -0.760622 -0.923732 -10.393053 0.420288 -0.530136 -10.745748 -0.057755 -0.425276 0.000000 0.000000 0.000000 -19.444483 7.537029 -2.061577 -12.780680 -0.882879 0.844412 -12.658546 0.079119 0.662142 0.000000 0.000000 0.000000 -22.102360 16.364067 -4.366696 -14.284795 -1.550275 2.706155 -13.717956 0.407829 2.358610 0.000000 0.000000 0.000000 0.000000 0.000000 0.000000 0.000000 0.000000 0.000000 -0.227119 -9.150414 15.918926 -0.072044 -0.758000 4.406354 -3.099107 -6.295661 16.909899 -0.841142 0.951056 -18.271271 0.000000 0.000000 0.000000 0.000000 0.000000 0.000000 0.000000 0.000000 0.000000 -0.904745 -5.221189 10.360041 0.055936 0.272548 11.052980 3.696945 -0.824087 15.385029 0.213705 -0.367884 -20.334806 0.000000 0.000000 0.000000 0.000000 0.000000 0.000000 0.000000 0.000000 0.000000 
-0.134434 88.641205 3.785899 -0.596815 -2.191263 -10.956985 1.097578 0.014669 7.260272 -0.485328 0.126158 2.440816 -0.061299 -0.463841 5.974304 -1.063964 0.111254 4.929082 0.712210 0.582898 5.914635 0.068668 0.835887 -2.737791 -0.378892 -0.594137 -19.949917 0.000000 0.000000 0.000000 93.024551 -0.444084 10.515551 63.344723 -30.319485 9.169046 -0.120966 13.937685 23.395439 7.423988 12.194891 -4.540769 19.830849 30.106503 62.074524 -8.451461 -12.148451 -20.517580 -6.302296 -7.994721 -14.166063 0.000000 0.000000 0.000000 12.701477 -11.085690 1.664796 10.000703 0.320641 1.525061 9.770275 -0.110598 1.451709 0.000000 0.000000 0.000000 12.025781 -5.466482 0.368534 8.624512 0.428218 0.565248 9.104383 -0.062696 0.487389 0.000000 0.000000 0.000000 13.056799 2.238025 0.108315 9.524645 -0.879185 -0.833605 9.364321 0.065047 -0.594458 0.000000 0.000000 0.000000 12.015156 10.729518 -1.243808 9.328525 -1.627658 -2.450855 9.221376 0.266176 -2.016601 0.000000 0.000000 0.000000 0.000000 0.000000 0.000000 0.000000 0.000000 0.000000 -90.839516 0.477801 6.051928 -69.765312 18.625332 -4.977320 -0.452054 -9.358438 46.471565 -4.097312 -12.834941 -16.584974 -19.835287 -30.094915 61.940659 8.565083 12.142599 -20.632252 6.303530 8.147478 -14.403220 0.000000 0.000000 0.000000 -16.439121 -5.810212 1.081296 -10.755874 0.341250 -1.196484 -10.548300 -0.112948 -1.124993 0.000000 0.000000 0.000000 -15.880761 -0.744072 -0.863646 -10.422415 0.419784 -0.530454 -10.768812 -0.058119 -0.424756 0.000000 0.000000 0.000000 -19.527559 7.545992 -2.051951 -12.824031 -0.881857 0.845740 -12.709552 0.079704 0.662703 0.000000 0.000000 0.000000 -22.170656 16.373276 -4.414665 -14.332221 -1.550029 2.711673 -13.774173 0.408541 2.361842 0.000000 0.000000 0.000000 0.000000 0.000000 0.000000 0.000000 0.000000 0.000000 -0.245319 -9.154862 15.967086 -0.071820 -0.757662 4.397568 -3.082581 -6.318219 16.900373 -0.843009 0.950367 -18.263208 0.000000 0.000000 0.000000 0.000000 0.000000 0.000000 0.000000 0.000000 0.000000 -0.893036 -5.245769 10.389801 0.057076 0.276312 11.066443 3.676500 -0.854145 15.392317 0.217233 -0.372732 -20.333015 0.000000 0.000000 0.000000 0.000000 0.000000 0.000000 0.000000 0.000000 0.000000 
-0.133549 88.643570 3.813846 -0.589748 -2.135612 -10.982616 1.116092 0.021255 7.253757 -0.495851 0.136634 2.415597 -0.067959 -0.400696 6.021569 -1.091136 0.139571 4.936439 0.725706 0.561843 5.891930 0.060331 0.805048 -2.760291 -0.365310 -0.592676 -19.956148 0.000000 0.000000 0.000000 92.967949 -0.437249 10.550851 63.420052 -30.306887 9.131681 -0.124326 14.021218 23.608763 7.427142 12.135597 -4.484925 19.827335 30.107786 62.075748 -8.447155 -12.148713 -20.514082 -6.298530 -7.991835 -14.161775 0.000000 0.000000 0.000000 12.707213 -11.087299 1.731752 10.047239 0.318750 1.531179 9.814303 -0.112036 1.456591 0.000000 0.000000 0.000000 12.037862 -5.469447 0.407785 8.678203 0.427419 0.568287 9.156397 -0.063157 0.489449 0.000000 0.000000 0.000000 13.075338 2.233954 0.091045 9.577820 -0.877764 -0.835757 9.424260 0.065776 -0.595715 0.000000 0.000000 0.000000 12.040868 10.727016 -1.313162 9.382838 -1.624489 -2.455143 9.286233 0.267976 -2.020836 0.000000 0.000000 0.000000 0.000000 0.000000 0.000000 0.000000 0.000000 0.000000 -90.823235 0.464213 6.063862 -69.712097 18.712250 -4.832345 -0.411797 -9.462156 46.794613 -4.150732 -12.639099 -16.407249 -19.831734 -30.094202 61.936546 8.568909 12.138710 -20.635603 6.306190 8.149338 -14.403594 0.000000 0.000000 0.000000 -16.520460 -5.787818 1.195510 -10.763434 0.340294 -1.195946 -10.545627 -0.113535 -1.124707 0.000000 0.000000 0.000000 -15.949288 -0.730465 -0.791450 -10.445874 0.419217 -0.531572 -10.787651 -0.058504 -0.424940 0.000000 0.000000 0.000000 -19.598419 7.553257 -2.033190 -12.863148 -0.880880 0.847925 -12.757486 0.080232 0.663993 0.000000 0.000000 0.000000 -22.228565 16.381266 -4.454057 -14.377061 -1.549803 2.720211 -13.828889 0.409033 2.366988 0.000000 0.000000 0.000000 0.000000 0.000000 0.000000 0.000000 0.000000 0.000000 -0.265197 -9.161206 16.017998 -0.071538 -0.757031 4.387836 -3.067257 -6.346867 16.893457 -0.845071 0.948797 -18.255760 0.000000 0.000000 0.000000 0.000000 0.000000 0.000000 0.000000 0.000000 0.000000 -0.882891 -5.278517 10.418702 0.058229 0.280126 11.084332 3.658152 -0.892013 15.402096 0.220226 -0.377133 -20.336052 0.000000 0.000000 0.000000 0.000000 0.000000 0.000000 0.000000 0.000000 0.000000 
-0.131978 88.646027 3.840626 -0.580825 -2.072376 -11.011946 1.133409 0.028236 7.249482 -0.502932 0.146699 2.390744 -0.077781 -0.334557 6.068703 -1.118593 0.168525 4.945435 0.750432 0.534922 5.883607 0.052469 0.768421 -2.777727 -0.350931 -0.591453 -19.965069 0.000000 0.000000 0.000000 92.910889 -0.425995 10.580660 63.497730 -30.266489 9.102779 -0.125392 14.123241 23.838053 7.414592 12.110663 -4.428955 19.820755 30.110140 62.080746 -8.440037 -12.142442 -20.500549 -6.292563 -7.984450 -14.150525 0.000000 0.000000 0.000000 12.680743 -11.084174 1.810761 10.084821 0.316263 1.539621 9.848811 -0.114090 1.463334 0.000000 0.000000 0.000000 12.022574 -5.467950 0.455219 8.725532 0.426306 0.571785 9.200572 -0.063847 0.492074 0.000000 0.000000 0.000000 13.081469 2.232163 0.079291 9.629704 -0.875875 -0.839032 9.480955 0.066766 -0.597661 0.000000 0.000000 0.000000 12.066204 10.724002 -1.378470 9.441170 -1.620075 -2.462286 9.353695 0.270461 -2.026248 0.000000 0.000000 0.000000 0.000000 0.000000 0.000000 0.000000 0.000000 0.000000 -90.803490 0.451096 6.071835 -69.656960 18.802116 -4.680643 -0.369042 -9.568799 47.132538 -4.170051 -12.424826 -16.228794 -19.823812 -30.094851 61.937054 8.568883 12.126540 -20.625196 6.305254 8.145114 -14.395502 0.000000 0.000000 0.000000 -16.562525 -5.772500 1.321044 -10.757282 0.339353 -1.197329 -10.531119 -0.114168 -1.125827 0.000000 0.000000 0.000000 -15.988324 -0.722204 -0.708596 -10.454808 0.418592 -0.533415 -10.793937 -0.058892 -0.425763 0.000000 0.000000 0.000000 -19.640215 7.556006 -2.007991 -12.887500 -0.879939 0.850809 -12.791640 0.080690 0.665961 0.000000 0.000000 0.000000 -22.258867 16.385181 -4.488922 -14.408067 -1.549505 2.731256 -13.870357 0.409374 2.373954 0.000000 0.000000 0.000000 0.000000 0.000000 0.000000 0.000000 0.000000 0.000000 -0.286365 -9.168007 16.071201 -0.071257 -0.756202 4.378013 -3.053168 -6.381055 16.888002 -0.847391 0.946532 -18.248327 0.000000 0.000000 0.000000 0.000000 0.000000 0.000000 0.000000 0.000000 0.000000 -0.874299 -5.318301 10.447208 0.059349 0.283835 11.107192 3.642149 -0.935482 15.413646 0.222567 -0.380967 -20.343185 0.000000 0.000000 0.000000 0.000000 0.000000 0.000000 0.000000 0.000000 0.000000 
